# xmcd CD database file
#
# Track frame offsets:
#	150
#	998
#	67142
#	108183
#	136901
#	163318
#	204326
#
# Disc length: 3473 seconds
#
# Revision: 0
# Processed by: cddbd v1.5.2PL0 Copyright (c) Steve Scherf et al.
# Submitted via: CDex 1.70beta2
#
DISCID=570d8f07
DTITLE=Enrico Pieranunzi  - Live At Birdland
DYEAR=2010
DGENRE=Jazz
TTITLE0=Talk
TTITLE1=Danza 2
TTITLE2=Choro Del Infinito Hombre
TTITLE3=Rosa Del Mare
TTITLE4=Danza Nueva
TTITLE5=Miradas
TTITLE6=Tierra Nativa
EXTD=YEAR: 2010
EXTT0=
EXTT1=
EXTT2=
EXTT3=
EXTT4=
EXTT5=
EXTT6=
PLAYORDER=
